{"asset":{"version":"2.0","generator":"THREE.GLTFExporter"},"scenes":[{"nodes":[0]}],"scene":0,"nodes":[{"mesh":0}],"bufferViews":[{"buffer":0,"byteOffset":0,"byteLength":25992,"target":34962,"byteStride":12},{"buffer":0,"byteOffset":25992,"byteLength":4332,"target":34963}],"buffers":[{"byteLength":30324,"uri":"data:application/octet-stream;base64,"}],"accessors":[{"bufferView":0,"componentType":5126,"count":2166,"max":[87.8686294555664,0.00030393898487091064,82.04423522949219],"min":[-83.04136657714844,0.00030393898487091064,-88.86576080322266],"type":"VEC3"},{"bufferView":1,"componentType":5123,"count":2166,"max":[2165],"min":[0],"type":"SCALAR"}],"materials":[{"pbrMetallicRoughness":{"metallicFactor":0,"roughnessFactor":1}}],"meshes":[{"primitives":[{"mode":4,"attributes":{"POSITION":0},"indices":1,"material":0}]}]}